<?xml version="1.0" encoding="UTF-8"?>
<svg id="Layer_1" data-name="Layer 1" xmlns="http://www.w3.org/2000/svg" xmlns:xlink="http://www.w3.org/1999/xlink" viewBox="0 0 348.02 286">
  <defs>
    <style>
      .cls-1 {
        fill: #a9a8a9;
      }

      .cls-2 {
        fill: #575a87;
      }

      .cls-3 {
        fill: #cd818c;
      }

      .cls-4 {
        fill: #ffd139;
      }

      .cls-5 {
        fill: #673e5c;
      }

      .cls-6, .cls-7 {
        fill: #6466ae;
      }

      .cls-8 {
        opacity: .2;
      }

      .cls-8, .cls-7, .cls-9 {
        isolation: isolate;
      }

      .cls-10 {
        clip-path: url(#clippath);
      }

      .cls-11, .cls-12 {
        fill: none;
      }

      .cls-7, .cls-13, .cls-9 {
        opacity: .1;
      }

      .cls-14 {
        fill: url(#linear-gradient);
      }

      .cls-12 {
        stroke: #575a87;
        stroke-miterlimit: 10;
      }
    </style>
    <clipPath id="clippath">
      <rect class="cls-11" x=".02" width="348" height="286"/>
    </clipPath>
    <linearGradient id="linear-gradient" x1="133.11" y1="392.4" x2="133.11" y2="637.69" gradientTransform="translate(-8.36 672.42) scale(1 -1)" gradientUnits="userSpaceOnUse">
      <stop offset="0" stop-color="gray" stop-opacity=".25"/>
      <stop offset=".54" stop-color="gray" stop-opacity=".12"/>
      <stop offset="1" stop-color="gray" stop-opacity=".1"/>
    </linearGradient>
  </defs>
  <g class="cls-10">
    <g>
      <path class="cls-7" d="m341.29,76.1c-3.45-8.45-8.1-16.29-13.8-23.24l-191.51-1.99,157.68-23.41c-10.19-4.29-21.03-6.56-31.99-6.71C246.57,8,228,.74,208.7.05c-19.3-.69-38.29,5.22-54.16,16.86-12.68-6.89-26.73-10.47-40.99-10.44-42.55,0-78.01,31.15-85.96,72.45l313.69-2.83Z"/>
      <path class="cls-7" d="m348.02,110.74c0-11.2-2.02-22.3-5.97-32.69L10.14,114.86c-3.42,6.54-6.04,13.52-7.79,20.76l102.78,16.2L0,163.64c3.16,46.76,41.09,83.68,87.42,83.68,23.32,0,44.52-9.36,60.22-24.61,15.76,15.55,37.15,25.11,60.72,25.11,34.98,0,65.17-21.05,79.22-51.48,28.21-9.46,50.11-33.21,57.61-62.93l-129.97-21.32h132.78c0-.45,0-.89,0-1.34Z"/>
      <path class="cls-6" d="m97.13,286c42.47,0,76.89-5.96,76.89-13.32s-34.43-13.32-76.89-13.32-76.89,5.96-76.89,13.32,34.43,13.32,76.89,13.32Z"/>
      <path class="cls-14" d="m176.65,186.87c-3.46.92-7.01-.87-7.01-.87,0,0-3.03-3.71-5.58-4.21-2.55-.5-3.54,3.88-5.06,5.01-1.05.79-8.62.23-13.21-.2l-.79-.07c-.08-.06-.16-.12-.24-.18,0,0-4.4-1.43-5.32-2.7-.92-1.27-7.05-3.61-8.96-3.48-1.9.14-7.53.46-7.53.46,0,0-2.21-2.65-3.2-2.38-1,.28-4.46-.02-4.46-.02,0,0-.95-2.58-1.9-6.29-.44-1.73-1.92-2.94-3.37-3.74,1.3-4.65-1.02-17.93-8.21-20.52-1.57-.57-2.37-2.45-3.71-3.48-1.2-.92-3.15-3.09-2.19-7.01,1.35-5.49,4.72-14.13,4.72-14.13l2.5-5.28c-.23.37-.5.72-.79,1.05.34-.46.68-.91.97-1.29,2.5,1.33,5.22,2.13,8.01,2.33,2.82,1.21,5.65,2.27,6.74,2.23,2.51-.09,8.91,3.29,8.91,3.29,0,0,15.4,4.65,18.6,5.03,3.2.38,4.76-4.02,4.76-4.02,0,0,1.66-8.67-1.29-10.97-2.95-2.3-4.67,8.23-4.67,8.23l-20.15-7.68-1.24-.69c.97-1.08,1.73-2.34,2.26-3.72.31-.82.6-1.76,1.34-2.17.2-.1.42-.17.64-.2.18-.01.37-.01.55,0,3.5.23,6.5,3.13,10,3.15h.39c.67,0,1.32-.21,1.87-.61.31-.27.57-.6.76-.98.18-.38.29-.79.32-1.22-.05.12-.11.23-.17.34.09-.53.09-1.07,0-1.59-.22-1.26-.84-2.39-1.39-3.52-.16-.26-.25-.57-.26-.88.02-.16.06-.32.14-.46.07-.14.18-.27.3-.37,0,.03.01.07.02.1.26-.26.56-.49.87-.68.86-.59,1.59-1.37,2.15-2.27.56-.9.94-1.92,1.12-2.99-.08.26-.19.53-.29.78.52-1.82.4-3.77-.36-5.5-.19-.49-.5-.92-.9-1.25-1.26-.94-2.96.06-4.5.17-1.35.09-2.67-.55-3.89-1.2-2.09-1.11-4.16-2.3-5.9-3.94-1.98-1.87-3.44-4.26-5.22-6.33-1.78-2.07-4.07-3.92-6.72-4.13-4.82-.39-9.37,4.65-13.95,3.01-2.24-.8-3.71-2.98-5.26-4.86-1.55-1.88-3.69-3.68-6.02-3.27-1.62.29-3.02,1.61-4.66,1.56-.86-.03-1.65-.43-2.47-.72-1.97-.7-4.66-.36-5.37,1.71-.14.42-.19.87-.14,1.31.04.44.18.87.4,1.25-.1.15-.2.32-.28.48-.17.33-.23.71-.17,1.07-1.39,1.32-2.43,3.01-2.99,4.9-.56,1.89-.64,3.9-.22,5.83.42,1.93,1.33,3.7,2.62,5.13,1.29,1.43,2.92,2.47,4.72,3.01.06.26.13.52.19.79.66,2.92,1,6.22.03,8.44-.06.14-.13.27-.2.4l-.08.04-.12-.13-.74-.82c-.04-.85-.49-3.14-3.65-7.37-4.16-5.58-4.94-14.82-4.94-14.82,0,0-1.04-4.75,0-6.13,1.04-1.37,2.77-16.47,2.77-16.47l2.87-8.5s13.93-15,8.13-16.83c-3.94-1.24-8.64,5.16-11.25,9.39-1.28,2.08-2.11,4.43-2.43,6.89l-7.88,22.77s-.78,2.75,0,7.5c.78,4.75,2.51,13.17,2.51,13.17l4.4,11.8s1.62,5.09,1.48,7.31c-.19.13-.87,1.55-1.46,2.84l-.43.72-.03.29c-.29.65-.49,1.11-.49,1.11,0,0-2.45,7.65-.4,12.34,2.05,4.69,2.13,6.87,2.13,6.87l1.53,6.95.64,6.09,5.49,14.36,5.06,7.64s-.47,5.62-1.51,6.4c-1.04.78-.56,4.8-.56,4.8l-.65,10.56s-2.03,3.16-2.16,8.28-.87,6.59-.87,6.59c0,0-.34,4.3.61,6.26.95,1.97-1.51,4.02-1.51,4.02l2.11,7.66-.82,9.69s.38.11,1.02.28l-.13.7-3.44,18.37s-1.86,5.03-1.94,6.22l-6.02,11.48s-5.02,5.26-2.64,5.76c2.38.5,9.31-4.02,9.31-4.02,0,0,5.71-6.49,7.96-7.08,2.25-.59,4.74-2.29,4.02-4.76-.72-2.47-2.37-6.22-.78-10.2,1.02-2.51,3.18-9.31,4.66-14.05.08-.26.16-.51.24-.76.39-.04.78-.12,1.16-.23,3.63-1.19,5.54-.36,5.54-.36l6.49-27.76,1.43-13.93,9.09,8.01c1.8,1.59,4.03,2.52,6.37,2.66,3.58.22,9.17.77,13.21,2.09l1.69-7.45s4.84.19,5.88-1.55c.42-.72.84-1.32,1.18-1.79l.79-.13,21.44-3.51c3.98,0,9.43-2.84,9.43-2.84l3.33-.68s4.97-1.05,5.42-1.92c.45-.87-4.67-3.76-8.14-2.85Z"/>
      <path class="cls-5" d="m79.37,75.08c.68-2.02,3.33-2.36,5.25-1.68.79.28,1.58.68,2.41.72,1.61.05,2.98-1.25,4.56-1.53,2.28-.4,4.37,1.36,5.89,3.2,1.52,1.84,2.96,3.97,5.15,4.76,4.48,1.6,8.93-3.33,13.65-2.95,2.59.21,4.82,2.01,6.57,4.04,1.75,2.03,3.18,4.36,5.11,6.2,1.69,1.61,3.73,2.78,5.78,3.87,1.2.63,2.47,1.26,3.81,1.17,1.51-.1,3.17-1.07,4.4-.16.39.32.69.74.88,1.22,1.52,3.34.29,7.78-2.68,9.74-.52.34-1.15.72-1.18,1.37.01.31.1.6.25.86.54,1.11,1.15,2.22,1.35,3.44.2,1.23-.07,2.64-1.02,3.39-.62.43-1.35.65-2.09.6-3.43-.02-6.37-2.86-9.79-3.08-.44-.05-.88.02-1.28.21-.72.4-1.02,1.32-1.31,2.12-1.59,4.18-5.52,7.1-9.72,7.89-4.2.8-8.59-.33-12.35-2.46-.28-.14-.53-.32-.75-.54-.31-.4-.54-.88-.65-1.39-1.15-3.85-2.71-7.88-5.9-10.1-2.07-1.43-4.88-2.24-5.82-4.65-.59-1.53-.22-3.27-.37-4.91-.15-1.41-.67-2.75-1.5-3.86-.83-1.11-1.95-1.96-3.22-2.43-.56-.2-1.17-.34-1.57-.78-.33-.44-.54-.97-.61-1.52-.5-2.42-.84-4.98-1.54-7.35-.54-1.85-2.45-3.28-1.73-5.4Z"/>
      <g class="cls-13">
        <path d="m139.97,111.62c-.62.43-1.35.63-2.09.59-3.42,0-6.36-2.86-9.79-3.08-.44-.06-.88.02-1.28.2-.73.4-1.02,1.32-1.31,2.12-1.58,4.19-5.52,7.1-9.72,7.9-4.2.8-8.59-.33-12.34-2.46-.27-.14-.53-.32-.75-.54-.31-.4-.54-.88-.65-1.39-1.15-3.85-2.71-7.88-5.9-10.1-2.07-1.45-4.88-2.23-5.82-4.65-.59-1.53-.22-3.27-.37-4.91-.15-1.41-.67-2.75-1.5-3.87-.84-1.11-1.95-1.95-3.22-2.43-.56-.2-1.17-.34-1.57-.78-.33-.44-.54-.97-.61-1.53-.51-2.42-.84-4.98-1.54-7.35-.47-1.58-1.97-2.86-1.89-4.55-.04.09-.08.18-.12.28-.72,2.12,1.19,3.54,1.74,5.37.7,2.36,1.04,4.93,1.54,7.35.07.56.28,1.08.61,1.53.41.44,1.02.59,1.57.78,1.27.47,2.38,1.31,3.22,2.43.84,1.11,1.36,2.46,1.5,3.87.15,1.64-.22,3.38.37,4.91.93,2.43,3.74,3.22,5.82,4.65,3.18,2.23,4.74,6.25,5.9,10.1.11.51.33.98.65,1.39.22.22.47.4.75.54,3.76,2.15,8.13,3.25,12.34,2.46,4.21-.79,8.13-3.71,9.72-7.9.31-.8.59-1.72,1.31-2.12.4-.19.85-.26,1.28-.2,3.42.22,6.36,3.07,9.79,3.08.74.04,1.47-.17,2.09-.6.31-.26.56-.59.74-.96.18-.37.29-.78.32-1.19-.17.42-.44.79-.78,1.06Z"/>
        <path d="m140.55,102.54c-.52.36-1.15.72-1.18,1.37,0,.13.02.26.06.39.26-.26.54-.48.85-.66.84-.58,1.55-1.34,2.1-2.22.55-.89.92-1.88,1.09-2.92-.5,1.67-1.53,3.1-2.92,4.05Z"/>
      </g>
      <path class="cls-3" d="m88.23,251.83c-1.57,3.9.04,7.56.76,9.98.72,2.42-1.73,4.07-3.94,4.65-2.2.58-7.79,6.93-7.79,6.93,0,0-6.77,4.43-9.11,3.94-2.33-.49,2.58-5.64,2.58-5.64l5.89-11.23c.08-1.16,1.9-6.09,1.9-6.09l3.37-17.97.45-2.39,11.94-.76s-.63,2.05-1.49,4.82c-1.45,4.65-3.58,11.33-4.56,13.76Z"/>
      <path class="cls-3" d="m183.5,189.01c-.42.85-5.29,1.88-5.29,1.88l-3.26.67s-5.33,2.78-9.23,2.78l-20.98,3.43-2.81.46v-12.58s1.42.16,3.42.36c4.48.42,11.9.97,12.92.19,1.48-1.12,2.46-5.41,4.95-4.92,2.5.49,5.46,4.12,5.46,4.12,0,0,3.47,1.74,6.86.85,3.39-.9,8.38,1.91,7.96,2.76Z"/>
      <path class="cls-9" d="m145.48,196.8s-.3.36-.74.97l-2.81.46v-12.58s1.42.16,3.42.36c3.37,2.81.13,10.79.13,10.79Z"/>
      <path class="cls-2" d="m104.96,193.89l11.27,9.94c1.76,1.55,3.94,2.46,6.23,2.6,3.5.22,8.97.75,12.94,2.05l1.65-7.3s4.74.18,5.76-1.52c.6-1,1.26-1.96,1.99-2.86,0,0,3.43-8.46-.46-11.05,0,0-4.32-1.39-5.21-2.64-.89-1.25-6.9-3.53-8.76-3.4-1.86.13-7.37.45-7.37.45,0,0-2.16-2.6-3.13-2.33-.97.27-4.36,0-4.36,0,0,0-.93-2.53-1.86-6.16-.93-3.63-6.48-4.92-6.48-4.92l-2.2,27.15Z"/>
      <path class="cls-9" d="m104.96,193.89l11.27,9.94c1.76,1.55,3.94,2.46,6.23,2.6,3.5.22,8.97.75,12.94,2.05l1.65-7.3s4.74.18,5.76-1.52c.6-1,1.26-1.96,1.99-2.86,0,0,3.43-8.46-.46-11.05,0,0-4.32-1.39-5.21-2.64-.89-1.25-6.9-3.53-8.76-3.4-1.86.13-7.37.45-7.37.45,0,0-2.16-2.6-3.13-2.33-.97.27-4.36,0-4.36,0,0,0-.93-2.53-1.86-6.16-.93-3.63-6.48-4.92-6.48-4.92l-2.2,27.15Z"/>
      <path class="cls-3" d="m99.92,104.79l-1.25.25h-.08l-.18.04-2.13.42-.66.82-.03.03-2.11,2.64-1.78,1.84-.02.02-1.5,1.55-2.54,2.67-.43,1.11-.93,2.47-.24.63-2.54,2.86-1.62,3.67-3.79,2.33-4.08-2.24-1.86-2.86.42-4.1.08-.82,1.24-2.11,1.13-1.92,2.2-3.31,4.23-3.04.76-.21.85-.24c.07-.1.12-.2.18-.3.07-.13.14-.26.19-.39.95-2.17.62-5.4-.03-8.26-.49-2.14-1.15-4.23-1.95-6.26l11.18-1.7s-.11,2.29-.11,5.86c0,.89,0,1.87.02,2.9.05,3.22,2.89,4.62,5.02,5.21.55.16,1.11.28,1.67.36.41.07.67.08.67.08Z"/>
      <path class="cls-3" d="m82.31,106.48s.51-2.15-3.56-7.61c-4.06-5.46-4.83-14.5-4.83-14.5,0,0-1.02-4.65,0-6,1.02-1.34,2.71-16.11,2.71-16.11l2.79-8.32s13.63-14.68,7.96-16.47c-3.85-1.22-8.47,5.05-11.01,9.19-1.25,2.03-2.06,4.34-2.37,6.74l-7.71,22.29s-.76,2.68,0,7.34c.76,4.65,2.46,12.89,2.46,12.89l4.32,11.56s2.27,7.19,1.09,8.07l2.63-4.11,5.5-4.95Z"/>
      <path class="cls-3" d="m149.8,127.08s-1.52,4.3-4.66,3.94c-3.13-.36-18.21-4.92-18.21-4.92,0,0-6.27-3.31-8.72-3.22-2.46.09-13.72-5.46-13.72-5.46,0,0-.79,1.1-1.68,2.26-.96,1.27-2.03,2.61-2.3,2.66-.51.09-8.38,1.25-8.38,1.25l-5.34-2.6-.51-2.34-.24-1.07,1.18-1.39,1.55-1.83,2.92-3.51.02-.02,3.89-4.47.03-.03,2.49-1.07.48-.21h.08c.3-.05,1.44-.17,2.98.75,1.07.64,2.25,1.03,3.48,1.14,2.43.18,4.74,1.23,6.55,2.96l12.53,6.97,19.73,7.52s1.69-10.29,4.57-8.06c2.88,2.24,1.27,10.75,1.27,10.75Z"/>
      <path class="cls-9" d="m102.82,119.68c-.96,1.27-2.03,2.61-2.3,2.66-.51.09-8.38,1.25-8.38,1.25l-5.34-2.6-.51-2.34-.24.63-2.54,2.86-1.62,3.67-3.79,2.33-4.08-2.24-1.86-2.86.42-4.1c.21-.49.8-1.81,1.33-2.93.25-.62.57-1.2.94-1.74.34-.24.69-2.77.69-2.77,1.54-4.69,6.69-5.41,6.69-5.41l.82.82.36.39c-.15-.03.03-.36-.16-.31-.3.09-.43.57-.81.83-2.08,1.43-5.34,4.77-6.63,6.36-.31.38-.63.76-.96,1.12-1.86,2.08-1.52,4.84-1.52,4.84-.46,2.15,3.64,3.76,3.64,3.76,1.14-2.01,8.89-7.56,8.89-7.56l5.22-6.17c1.6-2.94,4.74-4.89,6.5-5.8.78-.4,1.28-.6,1.28-.6l1.95.88c-.51-.15-1.06-.12-1.56.07-.29.09-.57.21-.84.36-.1.05-.2.11-.3.17-.53.33-1.04.71-1.5,1.14l-4.38,5.06c-3.35,3.86-.83,10.11,4.13,10.2h.04c3.03.74,5.2-.74,6.41-1.97Z"/>
      <path class="cls-9" d="m94.29,233.27s-.63,2.05-1.49,4.82c-3.31.26-8.78-1.09-10.89-1.66l.45-2.39,11.94-.76Z"/>
      <path class="cls-2" d="m81.47,107.16l-1.08-1.17s-3.91.57-6.34,4.98c0,0-1.13,3.31-1.48,3.55s-2.35,4.87-2.35,4.87c0,0-2.4,7.49-.4,12.08,2,4.6,2.09,6.71,2.09,6.71l1.5,6.8.62,5.96,5.38,14.05,4.95,7.46s-.46,5.5-1.48,6.26c-1.02.76-.55,4.7-.55,4.7l-.63,10.34s-1.99,3.09-2.12,8.1c-.13,5.01-.85,6.44-.85,6.44,0,0-.34,4.21.59,6.13.93,1.93-1.48,3.94-1.48,3.94l2.08,7.47-.81,9.49s9.57,2.82,13.13,1.66c3.56-1.16,5.42-.36,5.42-.36l6.35-27.18,2.2-21.34s.13-15.12,2.03-19.74c1.63-3.94-.51-17.97-7.86-20.62-1.53-.55-2.31-2.39-3.62-3.4-1.17-.9-3.09-3.02-2.15-6.86,1.31-5.37,4.62-13.83,4.62-13.83l2.45-5.15s-2.66,4.55-7.53,3.38h-.04c-4.96-.09-7.48-6.34-4.13-10.2l4.38-5.06s2.42-2.35,4.19-1.76l-1.95-.88s-5.48,2.15-7.79,6.4l-5.22,6.18s-7.74,5.52-8.89,7.55c0,0-4.11-1.61-3.64-3.76,0,0-.34-2.76,1.52-4.84.34-.36.65-.74.96-1.12,1.67-2.06,6.29-7.53,7.94-7.24Z"/>
      <path class="cls-9" d="m84.04,144.17s-1.23,9.44-.3,11.37l.3-11.37Z"/>
      <path class="cls-9" d="m84.85,147.84l1.31,5.42s.46-3.31-1.31-5.42Z"/>
      <path class="cls-9" d="m77.06,146.58s2.63,13.78,5.5,17.95l-5.5-17.95Z"/>
      <path class="cls-9" d="m95.56,163.19s-4.49,4.48-6.23,4.15c0,0,6.9.32,9.06-3.53,0,0-1.4-1.06-2.84-.62Z"/>
      <path class="cls-9" d="m101.78,162.84s-5.76,4.43-6.9,4.83c0,0,6.22-1.88,6.9-4.83Z"/>
      <path class="cls-9" d="m82.31,129.94s-2.88,3.9-4.32,3.45c0,0,3.52.13,4.32-3.45Z"/>
      <path class="cls-9" d="m85.57,134.95s6.27-8.99,9.23-8.63c0,0-7.11,6.53-9.23,8.63Z"/>
      <path class="cls-9" d="m94.25,131.68s-3.98,2.11-3.56,2.72c.42.62,3.56-2.72,3.56-2.72Z"/>
      <path class="cls-9" d="m97.13,200.74s-13.3,8.19-14.52,8.59c0,0,2.29,1.84,4.44.94,2.16-.9,10.08-9.53,10.08-9.53Z"/>
      <path class="cls-9" d="m85.99,217.79s-5.34-.58-5.13,1.25c.21,1.84,5.13-1.25,5.13-1.25Z"/>
      <path class="cls-9" d="m92.64,90.37s-.11,2.29-.11,5.86c-1.25,1.09-2.73,1.84-4.32,2.21-1.58.36-3.23.33-4.8-.11-.49-2.14-1.15-4.23-1.95-6.26l11.18-1.7Z"/>
      <path class="cls-3" d="m86.03,97.99c5.66,0,10.25-4.85,10.25-10.83s-4.59-10.83-10.25-10.83-10.25,4.85-10.25,10.83,4.59,10.83,10.25,10.83Z"/>
      <path class="cls-9" d="m88.72,93.77c.29,4.43,1.17,9.49,4.81,11.72,2.63,1.61,5.94,1.18,8.85.27,2.91-.92,5.76-2.28,8.79-2.44,2.33-.12,4.63.49,6.95.64,2.32.15,4.86-.23,6.52-1.96,2.37-2.46,1.94-6.92-.31-9.5-2.25-2.58-5.76-3.52-9.08-3.42-4.07.12-8.6,1.43-11.82-1.17-2.16-1.75-2.97-4.8-4.79-6.94-3.03-3.58-16.44-8.75-19.28-2.91-1.33,2.73,4.72,4.68,6.12,6.66,2.22,3.12,2.98,4.97,3.25,9.06Z"/>
      <path class="cls-5" d="m89.03,93.39c.29,4.43,1.17,9.5,4.81,11.72,2.63,1.61,5.94,1.18,8.85.27,2.91-.91,5.76-2.28,8.79-2.44,2.32-.12,4.62.48,6.95.64,2.32.16,4.86-.23,6.51-1.95,2.37-2.46,1.94-6.92-.31-9.5-2.24-2.58-5.76-3.52-9.08-3.42-4.07.11-8.61,1.43-11.82-1.18-2.16-1.75-2.97-4.79-4.79-6.94-3.03-3.58-16.44-8.75-19.28-2.91-1.33,2.73,4.72,4.68,6.12,6.66,2.21,3.11,2.98,4.96,3.24,9.05Z"/>
      <path class="cls-9" d="m76.71,123.89c.16-1.41.6-2.77,1.29-3.99.69-1.22,1.63-2.27,2.74-3.07"/>
      <path class="cls-9" d="m115.13,179.97c-.03.35-.11.7-.24,1.02-.44,1.41-.98,2.78-1.6,4.11.9-.08,1.65-.83,2.03-1.7.33-.89.52-1.84.54-2.8.03-.3.04-.6.02-.9-.02-.28-.19-1.35-.63-1.16-.35.16-.13,1.14-.13,1.43Z"/>
      <path class="cls-9" d="m125.55,100.51c-1.66,1.73-4.19,2.11-6.52,1.96-2.32-.16-4.63-.76-6.95-.64-3.05.15-5.87,1.52-8.79,2.44-2.91.92-6.22,1.34-8.85-.27-3.63-2.23-4.52-7.29-4.8-11.72-.26-4.09-1.04-5.94-3.25-9.06-1.34-1.89-6.89-3.75-6.26-6.28-.18.23-.34.48-.47.74-1.33,2.73,4.72,4.68,6.12,6.66,2.21,3.11,2.98,4.97,3.24,9.05.29,4.43,1.17,9.5,4.81,11.72,2.63,1.61,5.94,1.19,8.85.27,2.91-.91,5.76-2.28,8.79-2.44,2.32-.12,4.62.48,6.95.64,2.32.16,4.86-.23,6.51-1.95.47-.49.84-1.08,1.1-1.73-.15.21-.31.41-.49.6Z"/>
      <path class="cls-3" d="m75.98,133.06l-1.24,2.86,3.95-.83-2.71-2.03Z"/>
      <path class="cls-9" d="m75.98,133.06l-1.02,2.86h-.22l1.24-2.86Z"/>
      <path class="cls-7" d="m173.79,263.06c7.67,0,13.89-.9,13.89-2.02s-6.22-2.02-13.89-2.02-13.89.9-13.89,2.02,6.22,2.02,13.89,2.02Z"/>
      <path class="cls-7" d="m226.99,268.76c7.67,0,13.89-.9,13.89-2.02s-6.22-2.02-13.89-2.02-13.89.9-13.89,2.02,6.22,2.02,13.89,2.02Z"/>
      <path class="cls-7" d="m289.66,261.04c7.67,0,13.89-.9,13.89-2.02s-6.22-2.02-13.89-2.02-13.89.9-13.89,2.02,6.22,2.02,13.89,2.02Z"/>
      <path class="cls-7" d="m205.7,284.4c5.45,0,9.87-.64,9.87-1.43s-4.42-1.43-9.87-1.43-9.87.64-9.87,1.43,4.42,1.43,9.87,1.43Z"/>
      <path class="cls-7" d="m260.91,282.97c5.45,0,9.87-.64,9.87-1.43s-4.42-1.43-9.87-1.43-9.87.64-9.87,1.43,4.42,1.43,9.87,1.43Z"/>
      <path class="cls-6" d="m227.29,266.29s-19.48-67.48,3.05-94.51c16.85-20.22,35.98-17.8,44.54-15.3,2.22.62,4.28,1.75,6.04,3.3s3.19,3.49,4.17,5.68c2.99,6.83,2.45,17.9-18.68,30.85-35.4,21.66-37.6,51.37-37.6,51.37l-1.52,18.62Z"/>
      <path class="cls-12" d="m271.84,166.05s-57.42,18.97-44.54,100.24"/>
      <path class="cls-12" d="m238.3,172.85s7.9,5.63,5.39,14.09"/>
      <path class="cls-12" d="m266.08,177.86s-4.83-5.2-10.72-2.33"/>
      <path class="cls-12" d="m243.38,204s-8.49-4.55-10.68,1.15"/>
      <path class="cls-12" d="m222.38,213.48s6.37-.54,6.49,2.69"/>
      <path class="cls-6" d="m226.52,266.83s22.81-49.05,29.08-47.97c2.98.51,4.35,3.6,4.97,6.71.76,4.02.33,8.2-1.26,11.94-3.23,7.84-11.93,22.75-32.79,29.32Z"/>
      <path class="cls-12" d="m255.41,228.16s-23.94,36.69-28.57,38.31"/>
      <path class="cls-12" d="m257.61,233.89h-5.59"/>
      <path class="cls-12" d="m250.92,247.32l-8.76.4"/>
      <path class="cls-12" d="m245.59,236.57l.95,4.82"/>
      <path class="cls-12" d="m236.27,251.25l.17,4.38"/>
      <path class="cls-6" d="m227.2,266.83s-22.81-49.05-29.08-47.97c-2.98.51-4.35,3.6-4.97,6.71-.78,4.02-.35,8.19,1.23,11.94,3.24,7.84,11.93,22.75,32.82,29.32Z"/>
      <path class="cls-12" d="m198.28,228.16s23.94,36.69,28.57,38.31"/>
      <path class="cls-12" d="m196.07,233.89h5.59"/>
      <path class="cls-12" d="m202.77,247.32l8.76.4"/>
      <path class="cls-12" d="m208.1,236.57l-.95,4.82"/>
      <path class="cls-12" d="m217.41,251.25l-.17,4.38"/>
      <path class="cls-6" d="m266.35,278.28c.62-.53,1.08-1.26,1.3-2.07.17-.82-.17-1.81-.91-2.11-.83-.34-1.72.27-2.4.89-.67.62-1.45,1.32-2.33,1.19.45-.44.79-.99.99-1.6.19-.61.23-1.27.11-1.91-.04-.26-.14-.51-.3-.72-.46-.52-1.3-.3-1.86.11-1.76,1.31-2.25,3.84-2.26,6.12-.18-.82-.03-1.68-.03-2.51,0-.83-.22-1.79-.89-2.23-.42-.24-.88-.37-1.36-.36-.79-.03-1.67.05-2.22.67-.68.76-.5,2.04.09,2.86s1.47,1.36,2.29,1.94c.66.41,1.22.98,1.64,1.65.05.09.09.19.12.29h4.96c1.11-.59,2.14-1.34,3.06-2.22Z"/>
      <path class="cls-6" d="m179.44,258.53c.62-.54,1.07-1.26,1.3-2.07.17-.82-.16-1.79-.91-2.11-.83-.34-1.72.27-2.4.89-.68.62-1.45,1.32-2.33,1.19.45-.44.79-.99.98-1.61.19-.62.23-1.28.1-1.91-.04-.26-.14-.51-.3-.72-.46-.52-1.3-.3-1.86.11-1.76,1.31-2.25,3.84-2.26,6.11-.18-.82-.03-1.68-.03-2.51,0-.83-.22-1.79-.9-2.23-.42-.24-.88-.35-1.35-.34-.79-.03-1.67.05-2.21.66-.68.76-.5,2.04.08,2.86.58.83,1.47,1.36,2.29,1.94.65.41,1.21.98,1.64,1.65.05.09.09.19.12.3h4.97c1.11-.59,2.14-1.34,3.07-2.23Z"/>
      <path class="cls-6" d="m208.4,278.28c.62-.53,1.08-1.26,1.3-2.07.17-.82-.17-1.81-.91-2.11-.83-.34-1.72.27-2.4.89s-1.45,1.32-2.33,1.19c.45-.44.79-.99.99-1.6.19-.62.23-1.27.11-1.91-.04-.26-.14-.51-.31-.72-.46-.52-1.3-.3-1.86.11-1.76,1.31-2.25,3.84-2.26,6.12-.18-.82-.03-1.68-.03-2.51,0-.83-.22-1.79-.89-2.23-.41-.24-.88-.37-1.35-.36-.79-.03-1.67.05-2.22.67-.68.76-.5,2.04.09,2.86.59.83,1.47,1.36,2.29,1.94.66.41,1.22.98,1.64,1.65.05.09.09.19.12.29h4.96c1.11-.59,2.14-1.34,3.06-2.22Z"/>
      <path class="cls-6" d="m290.54,238.35s1.86,2.57-.86,6.44c-2.72,3.87-4.96,7.16-4.07,9.58,0,0,4.1-7.21,7.45-7.31,3.35-.1,1.16-4.38-2.53-8.71Z"/>
      <path class="cls-9" d="m290.54,238.35c.16.25.29.52.38.81,3.26,4.05,5,7.82,1.86,7.92-2.92.09-6.42,5.6-7.26,7,.03.11.06.21.1.31,0,0,4.11-7.21,7.45-7.31,3.35-.1,1.15-4.39-2.54-8.72Z"/>
      <path class="cls-4" d="m294.02,241.63c0,.91-.1,1.64-.21,1.64s-.21-.75-.21-1.64.12-.48.24-.48.19-.42.19.48Z"/>
      <path class="cls-4" d="m295.2,242.71c-.75.43-1.41.69-1.46.59-.05-.11.51-.55,1.26-.99.75-.43.46-.12.51,0,.05.12.45-.04-.31.4Z"/>
      <path class="cls-6" d="m280.72,238.35s-1.86,2.57.86,6.44c2.72,3.87,4.96,7.16,4.07,9.58,0,0-4.1-7.21-7.45-7.31-3.35-.1-1.14-4.38,2.53-8.71Z"/>
      <path class="cls-9" d="m280.72,238.35c-.16.25-.29.52-.38.81-3.26,4.05-4.99,7.82-1.86,7.92,2.92.09,6.44,5.6,7.26,7-.03.11-.06.21-.1.31,0,0-4.1-7.21-7.45-7.31-3.35-.1-1.12-4.39,2.54-8.72Z"/>
      <path class="cls-4" d="m277.27,241.63c0,.91.1,1.64.22,1.64s.21-.73.21-1.64-.12-.48-.24-.48-.19-.42-.19.48Z"/>
      <path class="cls-4" d="m276.08,242.71c.75.43,1.41.69,1.46.59.06-.11-.5-.55-1.26-.99-.75-.43-.46-.12-.52,0-.06.12-.44-.04.31.4Z"/>
      <path class="cls-1" d="m277.86,254.05s5.2-.17,6.77-1.35c1.57-1.18,8.01-2.59,8.39-.69.39,1.89,7.82,9.41,1.94,9.46-5.87.05-13.65-.97-15.21-1.98-1.57-1.01-1.9-5.44-1.9-5.44Z"/>
      <path class="cls-8" d="m295.08,260.81c-5.87.05-13.65-.97-15.22-1.98-1.19-.77-1.67-3.52-1.82-4.79h-.18s.34,4.43,1.9,5.44c1.56,1.01,9.34,2.03,15.21,1.98,1.69,0,2.28-.65,2.25-1.6-.24.58-.88.93-2.14.95Z"/>
    </g>
  </g>
</svg>